<?xml version="1.0" encoding="utf-8"?>

<svg version="1.1" xmlns="http://www.w3.org/2000/svg" xmlns:xlink="http://www.w3.org/1999/xlink" width="538" height="24">
<g transform="translate(48, 0)">
<path fill="#cfcfcf" d="M10,0C4.5,0,0,4.5,0,10s4.5,10,10,10s10-4.5,10-10S15.5,0,10,0z M15,13.6L13.6,15L10,11.4L6.4,15L5,13.6L8.6,10L5,6.4L6.4,5&#xD;&#xA;	L10,8.6L13.6,5L15,6.4L11.4,10L15,13.6z" xmlns="http://www.w3.org/2000/svg" />
</g>

<g transform="translate(92, 0)">
<polygon fill="#666666" points="3,1 4,0 10,6 10,6 10,6 4,12 3,11 8,6 " xmlns="http://www.w3.org/2000/svg" />
</g>

<g transform="translate(106, 0)">
<polygon fill="#666666" points="9,1 8,0 2,6 2,6 2,6 8,12 9,11 4,6 " xmlns="http://www.w3.org/2000/svg" />
</g>

<g transform="translate(120, 0)">
<polygon fill="#666666" points="3,1 4,0 10,6 10,6 10,6 4,12 3,11 8,6 " xmlns="http://www.w3.org/2000/svg" />
</g>

<g transform="translate(134, 0)">
<polygon fill="#666666" points="5,1 6,0 12,6 12,6 12,6 6,12 5,11 10,6 " xmlns="http://www.w3.org/2000/svg" />
<polygon fill="#666666" points="1,1 2,0 8,6 8,6 8,6 2,12 1,11 6,6 " xmlns="http://www.w3.org/2000/svg" />
</g>

<g transform="translate(148, 0)">
<polygon fill="#666666" points="9,1 8,0 2,6 2,6 2,6 8,12 9,11 4,6 " xmlns="http://www.w3.org/2000/svg" />
</g>

<g transform="translate(162, 0)">
<polygon fill="#666666" points="7,1 6,0 0,6 0,6 0,6 6,12 7,11 2,6 " xmlns="http://www.w3.org/2000/svg" />
<polygon fill="#666666" points="11,1 10,0 4,6 4,6 4,6 10,12 11,11 6,6 " xmlns="http://www.w3.org/2000/svg" />
</g>

<g transform="translate(70, 0)">
<path fill="#BBBBBB" d="M10,0C4.5,0,0,4.5,0,10s4.5,10,10,10s10-4.5,10-10S15.5,0,10,0z M15,13.6L13.6,15L10,11.4L6.4,15L5,13.6L8.6,10L5,6.4L6.4,5&#xD;&#xA;	L10,8.6L13.6,5L15,6.4L11.4,10L15,13.6z" xmlns="http://www.w3.org/2000/svg" />
</g>

<g transform="translate(0, 0)">
<style type="text/css" xmlns="http://www.w3.org/2000/svg">
	.st08 {fill:#666666;}
</style>
<g xmlns="http://www.w3.org/2000/svg">
	<path class="st08" d="M7.7,14.7l-4.3-4.1L2,12l5.7,5.5L20,5.8l-1.4-1.4L7.7,14.7z" />
</g>
</g>

<g transform="translate(24, 0)">
<style type="text/css" xmlns="http://www.w3.org/2000/svg">
	.st09 {fill:#666666;}
</style>
<g xmlns="http://www.w3.org/2000/svg">
	<path class="st09" d="M18,5.4L16.6,4L11,9.6L5.4,4L4,5.4L9.6,11L4,16.6L5.4,18l5.6-5.6l5.6,5.6l1.4-1.4L12.4,11L18,5.4z" />
</g>
</g>


</svg>

